<svg width="40" height="40" viewBox="0 0 40 40" fill="none" xmlns="http://www.w3.org/2000/svg">
<path fill-rule="evenodd" clip-rule="evenodd" d="M12.4465 17.7286H9.33118C8.76474 17.7286 8.45283 18.3868 8.81152 18.8252L19.5748 31.9803C19.8439 32.3093 20.2465 32.5 20.6714 32.5C21.5195 32.5 22.3209 32.1117 22.8464 31.446L32.0857 19.7429V19.0714C32.0857 18.5744 31.8157 18.1404 31.4143 17.9082V19.7428H30.3749L21.7924 30.6139C21.5216 30.957 21.1085 31.1571 20.6714 31.1571C20.6492 31.1571 20.6282 31.1472 20.6142 31.13L10.7481 19.0714H13.4536L12.4465 17.7286Z" fill="black"/>
<path fill-rule="evenodd" clip-rule="evenodd" d="M12.2618 13.7H9.33985C8.77194 13.7 8.46051 14.3612 8.82221 14.799L19.7901 28.076L20.6714 29.1428L21.3429 28.2345V25.9753L20.6126 26.9632L10.7654 15.0428H13.2689L12.2618 13.7Z" fill="black"/>
<path d="M8.82222 10.099C8.46052 9.66121 8.77195 9 9.33986 9H30.7429C31.4845 9 32.0857 9.60122 32.0857 10.3429V19.7429L22.8464 31.446C22.3209 32.1117 21.5195 32.5 20.6714 32.5V24.4429L8.82222 10.099Z" fill="black"/>
</svg>
