<svg width="40" height="40" viewBox="0 0 40 40" fill="none" xmlns="http://www.w3.org/2000/svg">
<path fill-rule="evenodd" clip-rule="evenodd" d="M13.0893 17.9857H10.2391C9.72092 17.9857 9.43556 18.5879 9.76372 18.989L19.611 31.0246C19.8572 31.3255 20.2255 31.5 20.6143 31.5C21.3902 31.5 22.1234 31.1447 22.6041 30.5357L31.0571 19.8286V19.2143C31.0571 18.7595 30.8101 18.3625 30.4429 18.1501V19.8286H29.7831L21.8193 29.9161C21.5281 30.2848 21.0841 30.5 20.6143 30.5C20.5254 30.5 20.4412 30.4601 20.385 30.3913L11.0531 18.9857H13.8393L13.0893 17.9857Z" fill="white"/>
<path fill-rule="evenodd" clip-rule="evenodd" d="M12.9204 14.3H10.2471C9.72751 14.3 9.44259 14.9049 9.7735 15.3055L19.958 27.6341L20.6143 28.4286L21.2268 27.5999L21.2286 27.5975V25.9151L20.5705 26.8054L11.066 15.3H13.6704L12.9204 14.3Z" fill="#FFF7F7"/>
<path d="M21.1143 30.9376V24.1286V23.9488L20.9998 23.8101L10.159 10.6871C10.0974 10.6125 10.1504 10.5 10.2471 10.5H29.8286C30.231 10.5 30.5572 10.8262 30.5572 11.2286V19.655L22.2117 30.2259C21.9313 30.581 21.544 30.8287 21.1143 30.9376Z" fill="#FFF4F4" stroke="white"/>
</svg>
